<?xml version="1.0" encoding="iso-8859-1"?>
<!-- Generator: Adobe Illustrator 19.0.0, SVG Export Plug-In . SVG Version: 6.00 Build 0)  -->
<svg version="1.1" id="Capa_1" xmlns="http://www.w3.org/2000/svg" xmlns:xlink="http://www.w3.org/1999/xlink" x="0px" y="0px"
	 viewBox="0 0 512.001 512.001" style="enable-background:new 0 0 512.001 512.001;" xml:space="preserve">
<g>
	<g>
		<path d="M482.001,46H30C13.458,46,0,59.458,0,76v360c0,16.542,13.458,30,30,30h452.001c16.542,0,30-13.458,30-30V76
			C512.001,59.459,498.543,46,482.001,46z M246,446H30c-5.514,0-10-4.486-10-10V76c0-5.514,4.486-10,10-10h216V446z M492.001,436
			c0,5.514-4.486,10-10,10H266V339.984c6.199,5.051,14.102,8.087,22.703,8.087c19.851,0,36-16.15,36-36
			c0-12.002-5.91-22.645-14.966-29.189c7.047-6.576,11.466-15.936,11.466-26.311c0-6.97-1.997-13.479-5.44-18.998h176.238V436z
			 M285.203,272.571c-8.822,0-16-7.178-16-16c0-8.822,7.178-16,16-16c8.822,0,16,7.178,16,16
			C301.203,265.393,294.025,272.571,285.203,272.571z M304.703,312.071c0,8.822-7.178,16-16,16c-8.822,0-16-7.178-16-16
			s7.178-16,16-16C297.525,296.071,304.703,303.25,304.703,312.071z M492.001,217.573H266v-31.64
			c8.979,7.571,20.317,12.11,32.641,12.11c7.381,0,14.655-1.652,21.343-4.805c6.516,3.079,13.718,4.805,21.296,4.805
			c7.381,0,14.656-1.652,21.344-4.805c6.517,3.079,13.719,4.805,21.297,4.805c7.381,0,14.656-1.652,21.343-4.805
			c6.517,3.079,13.719,4.805,21.297,4.805c29.025,0,52.639-25.114,52.639-55.984c0-30.87-23.614-55.984-52.639-55.984
			c-7.578,0-14.78,1.725-21.296,4.804c-6.689-3.151-13.964-4.804-21.345-4.804c-7.578,0-14.78,1.725-21.296,4.804
			c-6.688-3.151-13.964-4.804-21.345-4.804c-7.577,0-14.779,1.725-21.294,4.804c-6.689-3.151-13.964-4.804-21.344-4.804
			c-12.323,0-23.661,4.539-32.641,12.11V66.001h216.001c5.514,0,10,4.486,10,10V217.573z M288.704,144.714
			c0.018,0.414,0.051,0.824,0.078,1.236c0.029,0.441,0.056,0.882,0.095,1.32c0.048,0.558,0.111,1.11,0.175,1.663
			c0.031,0.26,0.06,0.521,0.093,0.779c0.087,0.672,0.187,1.339,0.296,2.004c0.016,0.097,0.032,0.193,0.049,0.29
			c1.23,7.261,3.777,14.036,7.375,20.041c0.02,0.033,0.04,0.066,0.06,0.1c0.368,0.61,0.744,1.215,1.132,1.81
			c0.115,0.177,0.234,0.35,0.351,0.524c0.311,0.464,0.623,0.927,0.946,1.38c0.293,0.412,0.598,0.814,0.901,1.219
			c0.167,0.22,0.327,0.443,0.496,0.661c0.055,0.07,0.106,0.145,0.161,0.215c-0.754,0.058-1.512,0.087-2.271,0.087
			c-17.998,0-32.641-16.143-32.641-35.984c0-19.841,14.643-35.984,32.641-35.984c0.759,0,1.516,0.029,2.27,0.087
			c-0.059,0.075-0.114,0.154-0.173,0.23c-0.142,0.182-0.276,0.37-0.417,0.555c-0.332,0.438-0.662,0.878-0.981,1.327
			c-0.306,0.429-0.601,0.867-0.895,1.306c-0.135,0.201-0.272,0.4-0.404,0.604c-0.374,0.572-0.736,1.155-1.091,1.743
			c-0.035,0.058-0.07,0.115-0.104,0.173c-3.586,5.994-6.126,12.755-7.355,20c-0.018,0.105-0.036,0.209-0.053,0.314
			c-0.108,0.659-0.207,1.321-0.293,1.987c-0.034,0.263-0.064,0.526-0.094,0.79c-0.064,0.551-0.126,1.101-0.174,1.656
			c-0.039,0.439-0.066,0.882-0.095,1.323c-0.026,0.411-0.06,0.821-0.078,1.234c-0.04,0.883-0.064,1.768-0.064,2.655
			C288.64,142.946,288.663,143.832,288.704,144.714z M331.346,144.714c0.018,0.414,0.051,0.824,0.078,1.236
			c0.029,0.441,0.056,0.882,0.095,1.32c0.048,0.557,0.111,1.109,0.175,1.661c0.03,0.262,0.06,0.522,0.094,0.783
			c0.086,0.67,0.185,1.335,0.294,1.997c0.017,0.1,0.033,0.199,0.05,0.299c1.23,7.261,3.778,14.036,7.375,20.04
			c0.018,0.03,0.038,0.062,0.056,0.092c0.37,0.615,0.748,1.223,1.139,1.82c0.11,0.168,0.223,0.333,0.335,0.5
			c0.316,0.473,0.634,0.944,0.964,1.406c0.28,0.393,0.57,0.776,0.859,1.162c0.181,0.238,0.355,0.482,0.539,0.719
			c0.053,0.067,0.101,0.139,0.155,0.206c-0.755,0.058-1.513,0.087-2.272,0.087c-5.99,0-11.603-1.796-16.433-4.913
			c-0.348-0.225-0.691-0.457-1.031-0.694c-0.214-0.15-0.431-0.299-0.642-0.454c-0.491-0.362-0.973-0.736-1.443-1.125
			c-0.184-0.152-0.361-0.313-0.542-0.47c-0.328-0.283-0.652-0.571-0.969-0.867c-0.194-0.181-0.385-0.363-0.575-0.549
			c-0.348-0.342-0.689-0.691-1.023-1.048c-0.118-0.126-0.24-0.247-0.357-0.374c-0.449-0.494-0.884-1.003-1.305-1.523
			c-0.095-0.117-0.186-0.237-0.279-0.354c-0.365-0.463-0.72-0.934-1.063-1.416c-0.065-0.092-0.132-0.183-0.196-0.275
			c-3.424-4.913-5.678-10.757-6.465-16.975c-0.016-0.127-0.029-0.254-0.044-0.381c-0.07-0.601-0.125-1.206-0.167-1.814
			c-0.012-0.179-0.027-0.357-0.037-0.537c-0.042-0.735-0.068-1.473-0.068-2.215s0.026-1.479,0.068-2.215
			c0.01-0.18,0.025-0.359,0.037-0.538c0.042-0.606,0.097-1.211,0.167-1.811c0.015-0.128,0.028-0.257,0.044-0.384
			c0.787-6.21,3.036-12.046,6.452-16.955c0.077-0.109,0.156-0.218,0.233-0.327c0.326-0.458,0.665-0.905,1.011-1.346
			c0.108-0.138,0.214-0.276,0.324-0.412c0.411-0.508,0.835-1.004,1.273-1.486c0.142-0.156,0.29-0.305,0.435-0.458
			c0.306-0.324,0.616-0.643,0.933-0.954c0.208-0.205,0.419-0.406,0.633-0.604c0.283-0.264,0.574-0.521,0.868-0.777
			c0.21-0.183,0.417-0.37,0.632-0.548c0.454-0.375,0.92-0.735,1.394-1.086c0.239-0.177,0.483-0.345,0.727-0.515
			c0.304-0.212,0.611-0.42,0.923-0.621c4.841-3.138,10.473-4.945,16.483-4.945c0.759,0,1.516,0.029,2.271,0.087
			c-0.059,0.075-0.113,0.153-0.171,0.229c-0.145,0.187-0.282,0.379-0.425,0.567c-0.328,0.434-0.656,0.869-0.971,1.313
			c-0.31,0.434-0.608,0.878-0.907,1.322c-0.13,0.194-0.263,0.387-0.39,0.583c-0.379,0.579-0.745,1.168-1.103,1.763
			c-0.03,0.051-0.061,0.101-0.091,0.151c-3.589,5.998-6.132,12.764-7.361,20.014c-0.017,0.102-0.034,0.203-0.051,0.305
			c-0.108,0.66-0.207,1.324-0.294,1.992c-0.034,0.262-0.064,0.525-0.094,0.788c-0.064,0.551-0.126,1.103-0.174,1.658
			c-0.039,0.439-0.066,0.88-0.095,1.32c-0.027,0.412-0.06,0.822-0.078,1.236c-0.04,0.883-0.064,1.768-0.064,2.655
			C331.282,142.945,331.305,143.831,331.346,144.714z M373.985,144.714c0.018,0.413,0.051,0.823,0.078,1.234
			c0.029,0.441,0.056,0.884,0.095,1.323c0.048,0.556,0.111,1.107,0.174,1.658c0.031,0.263,0.06,0.525,0.094,0.787
			c0.086,0.668,0.186,1.332,0.294,1.992c0.017,0.102,0.034,0.203,0.051,0.305c1.23,7.256,3.776,14.026,7.37,20.027
			c0.023,0.039,0.047,0.077,0.07,0.116c0.365,0.606,0.738,1.206,1.125,1.797c0.117,0.179,0.238,0.354,0.356,0.533
			c0.31,0.462,0.62,0.923,0.943,1.374c0.291,0.409,0.593,0.81,0.895,1.211c0.169,0.223,0.332,0.45,0.503,0.67
			c0.055,0.07,0.105,0.144,0.16,0.214c-0.754,0.058-1.512,0.087-2.272,0.087c-5.993,0-11.61-1.798-16.442-4.918
			c-0.344-0.223-0.683-0.451-1.018-0.686c-0.217-0.152-0.436-0.302-0.649-0.46c-0.491-0.361-0.972-0.735-1.441-1.123
			c-0.184-0.152-0.36-0.313-0.541-0.469c-0.329-0.284-0.654-0.573-0.972-0.87c-0.192-0.18-0.382-0.361-0.57-0.545
			c-0.354-0.346-0.699-0.7-1.038-1.062c-0.113-0.121-0.23-0.237-0.342-0.359c-0.452-0.497-0.889-1.008-1.312-1.531
			c-0.091-0.112-0.178-0.228-0.267-0.341c-0.371-0.469-0.731-0.947-1.079-1.437c-0.061-0.085-0.123-0.171-0.184-0.257
			c-3.427-4.915-5.683-10.764-6.471-16.984c-0.016-0.125-0.029-0.25-0.043-0.374c-0.071-0.603-0.125-1.209-0.167-1.818
			c-0.012-0.179-0.027-0.356-0.037-0.536c-0.042-0.735-0.068-1.473-0.068-2.215s0.026-1.479,0.068-2.215
			c0.01-0.18,0.025-0.358,0.037-0.537c0.042-0.608,0.097-1.214,0.167-1.815c0.015-0.126,0.028-0.252,0.043-0.377
			c0.787-6.214,3.038-12.054,6.458-16.965c0.072-0.104,0.146-0.205,0.219-0.308c0.332-0.466,0.675-0.921,1.027-1.368
			c0.104-0.133,0.206-0.267,0.312-0.397c0.414-0.511,0.84-1.01,1.281-1.494c0.137-0.151,0.282-0.295,0.421-0.443
			c0.31-0.329,0.625-0.652,0.947-0.969c0.207-0.202,0.416-0.402,0.627-0.6c0.287-0.264,0.581-0.523,0.877-0.78
			c0.209-0.182,0.415-0.369,0.628-0.545c0.454-0.375,0.919-0.735,1.393-1.086c0.241-0.178,0.488-0.348,0.734-0.52
			c0.3-0.209,0.603-0.413,0.91-0.612c4.843-3.141,10.478-4.95,16.492-4.95c0.759,0,1.516,0.029,2.27,0.087
			c-0.061,0.077-0.117,0.158-0.177,0.235c-0.132,0.17-0.257,0.347-0.388,0.519c-0.341,0.45-0.68,0.901-1.008,1.362
			c-0.303,0.425-0.595,0.859-0.886,1.293c-0.137,0.205-0.277,0.407-0.411,0.614c-0.375,0.572-0.736,1.155-1.091,1.743
			c-0.034,0.057-0.068,0.112-0.102,0.169c-3.587,5.996-6.128,12.76-7.357,20.007c-0.017,0.102-0.034,0.203-0.051,0.305
			c-0.108,0.66-0.208,1.324-0.294,1.992c-0.034,0.262-0.064,0.525-0.094,0.788c-0.064,0.551-0.126,1.103-0.174,1.658
			c-0.039,0.439-0.066,0.88-0.095,1.32c-0.027,0.412-0.06,0.822-0.078,1.236c-0.04,0.883-0.064,1.768-0.064,2.655
			C373.921,142.945,373.944,143.831,373.985,144.714z M393.92,142.059c0-0.742,0.026-1.479,0.068-2.215
			c0.01-0.18,0.025-0.359,0.037-0.538c0.043-0.606,0.097-1.211,0.167-1.811c0.015-0.128,0.028-0.257,0.044-0.384
			c0.787-6.207,3.034-12.04,6.447-16.947c0.081-0.116,0.165-0.23,0.247-0.346c0.32-0.449,0.652-0.889,0.992-1.321
			c0.114-0.144,0.225-0.291,0.341-0.434c0.408-0.503,0.828-0.994,1.262-1.473c0.151-0.166,0.31-0.324,0.464-0.488
			c0.295-0.312,0.594-0.619,0.899-0.92c0.216-0.212,0.434-0.42,0.654-0.625c0.273-0.254,0.553-0.501,0.835-0.746
			c0.221-0.192,0.438-0.39,0.663-0.575c0.449-0.37,0.909-0.727,1.377-1.073c0.248-0.184,0.502-0.358,0.756-0.534
			c0.292-0.204,0.587-0.403,0.886-0.598c4.846-3.144,10.484-4.956,16.501-4.956c17.997,0,32.639,16.143,32.639,35.984
			s-14.642,35.984-32.639,35.984c-5.997,0-11.617-1.8-16.451-4.925c-0.337-0.217-0.668-0.44-0.995-0.669
			c-0.224-0.157-0.45-0.313-0.671-0.475c-0.485-0.358-0.961-0.729-1.426-1.112c-0.194-0.16-0.381-0.331-0.572-0.496
			c-0.316-0.275-0.629-0.552-0.936-0.837c-0.2-0.188-0.398-0.376-0.594-0.567c-0.339-0.333-0.671-0.674-0.997-1.02
			c-0.125-0.134-0.255-0.262-0.378-0.398c-0.446-0.491-0.878-0.996-1.296-1.514c-0.099-0.121-0.194-0.247-0.291-0.37
			c-0.36-0.457-0.712-0.923-1.05-1.398c-0.068-0.096-0.137-0.191-0.205-0.287c-3.423-4.912-5.675-10.755-6.462-16.972
			c-0.016-0.125-0.029-0.252-0.044-0.378c-0.07-0.602-0.124-1.207-0.167-1.814c-0.012-0.18-0.027-0.357-0.037-0.537
			C393.946,143.539,393.92,142.801,393.92,142.059z"/>
	</g>
</g>
<g>
	<g>
		<path d="M196.301,81.001H69.699C50.566,81.001,35,96.568,35,115.703v280.6C35,415.434,50.566,431,69.699,431h126.602
			C215.434,431,231,415.434,231,396.301v-280.6C231,96.568,215.434,81.001,196.301,81.001z M211,396.301
			c0,8.105-6.594,14.699-14.699,14.699H69.699C61.594,411,55,404.407,55,396.301v-280.6C55,107.595,61.594,101,69.699,101h126.602
			c8.105,0,14.699,6.595,14.699,14.701V396.301z"/>
	</g>
</g>
<g>
	<g>
		<path d="M475.418,350.268c-8.557-31.936-35.724-79.45-75.497-79.45c-4.397,0-8.859,0.598-13.26,1.777
			c-21.468,5.753-35.533,23.176-40.674,50.386c-4.198,22.218-1.387,46.212,2.645,61.258c7.676,28.648,33.729,48.657,63.358,48.657
			c5.722,0,11.448-0.757,17.02-2.25c16.934-4.536,31.086-15.396,39.852-30.578C477.627,384.886,479.955,367.201,475.418,350.268z
			 M451.54,390.068c-6.094,10.556-15.934,18.105-27.706,21.26c-3.884,1.041-7.869,1.568-11.844,1.568
			c-20.593,0-38.703-13.913-44.04-33.833c-6.324-23.602-9.088-78.313,23.887-87.149c2.713-0.727,5.433-1.096,8.083-1.096
			c26.806,0,48.988,37.791,56.178,64.626C459.253,367.217,457.635,379.513,451.54,390.068z"/>
	</g>
</g>
<g>
	<g>
		<path d="M444.135,358.694c-3.887-14.506-17.08-24.637-32.085-24.637c-2.898,0-5.796,0.383-8.615,1.138
			c-8.574,2.297-15.74,7.795-20.178,15.482c-4.439,7.686-5.618,16.643-3.321,25.216c3.887,14.506,17.081,24.637,32.085,24.637
			c2.898,0,5.796-0.383,8.615-1.138c8.574-2.297,15.74-7.796,20.179-15.482C445.253,376.222,446.432,367.267,444.135,358.694z
			 M423.494,373.91c-1.767,3.061-4.62,5.249-8.034,6.164c-1.131,0.303-2.288,0.456-3.439,0.456c-5.968,0-11.218-4.035-12.766-9.813
			c-0.915-3.413-0.445-6.978,1.322-10.039c1.768-3.061,4.621-5.25,8.034-6.165c1.131-0.303,2.288-0.456,3.439-0.456
			c5.968,0,11.217,4.035,12.765,9.813C425.73,367.284,425.261,370.849,423.494,373.91z"/>
	</g>
</g>
<g>
	<g>
		<path d="M311.203,373.569c-17.37,0-31.501,14.132-31.501,31.502c0,17.369,14.131,31.5,31.501,31.5s31.501-14.131,31.501-31.5
			C342.704,387.701,328.573,373.569,311.203,373.569z M311.203,416.571c-6.342,0-11.501-5.159-11.501-11.5
			c0-6.342,5.159-11.502,11.501-11.502c6.342,0,11.501,5.16,11.501,11.502C322.704,411.412,317.545,416.571,311.203,416.571z"/>
	</g>
</g>
<g>
	<g>
		<path d="M100.53,131.745l-6.5-6.5c-3.905-3.904-10.237-3.904-14.143,0c-3.905,3.905-3.905,10.237,0,14.143l6.5,6.5
			c1.953,1.952,4.513,2.929,7.072,2.929c2.559,0,5.119-0.977,7.071-2.929C104.435,141.983,104.435,135.651,100.53,131.745z"/>
	</g>
</g>
<g>
	<g>
		<path d="M174.209,131.568h-9c-5.523,0-10,4.477-10,10c0,5.522,4.477,10,10,10h9c5.523,0,10-4.478,10-10
			C184.209,136.044,179.732,131.568,174.209,131.568z"/>
	</g>
</g>
<g>
	<g>
		<path d="M117.51,220.854c-1.637-5.274-7.239-8.221-12.515-6.587l-14.5,4.5c-5.275,1.637-8.224,7.24-6.587,12.515
			c1.331,4.288,5.282,7.039,9.548,7.039c0.981,0,1.98-0.146,2.967-0.452l14.5-4.5C116.198,231.732,119.147,226.128,117.51,220.854z"
			/>
	</g>
</g>
<g>
	<g>
		<path d="M177.778,290.997c-3.905-3.904-10.237-3.904-14.143,0l-10.75,10.75c-3.905,3.905-3.905,10.237,0,14.143
			c1.953,1.952,4.512,2.929,7.071,2.929s5.119-0.977,7.071-2.929l10.751-10.75C181.683,301.235,181.683,294.904,177.778,290.997z"/>
	</g>
</g>
<g>
	<g>
		<path d="M113.891,358.823l-3.459-10.029c-1.8-5.221-7.493-7.997-12.714-6.192c-5.221,1.8-7.994,7.492-6.193,12.714l3.459,10.029
			c1.428,4.142,5.305,6.742,9.453,6.742c1.081,0,2.181-0.177,3.261-0.55C112.919,369.737,115.692,364.045,113.891,358.823z"/>
	</g>
</g>
<g>
	<g>
		<path d="M173.996,355.569h-0.287c-5.523,0-10,4.477-10,10c0,5.522,4.477,10,10,10h0.287c5.523,0,10-4.478,10-10
			C183.996,360.046,179.519,355.569,173.996,355.569z"/>
	</g>
</g>
<g>
	<g>
		<path d="M105.996,281.569h-0.287c-5.523,0-10,4.477-10,10c0,5.522,4.477,10,10,10h0.287c5.523,0,10-4.478,10-10
			C115.996,286.046,111.519,281.569,105.996,281.569z"/>
	</g>
</g>
<g>
	<g>
		<path d="M127.209,169.068h-0.287c-5.523,0-10,4.477-10,10c0,5.522,4.477,10,10,10h0.287c5.523,0,10-4.478,10-10
			C137.209,173.544,132.732,169.068,127.209,169.068z"/>
	</g>
</g>
<g>
	<g>
		<path d="M171.996,216.568h-0.287c-5.523,0-10,4.477-10,10c0,5.522,4.477,10,10,10h0.287c5.523,0,10-4.478,10-10
			C181.996,221.044,177.519,216.568,171.996,216.568z"/>
	</g>
</g>
<g>
</g>
<g>
</g>
<g>
</g>
<g>
</g>
<g>
</g>
<g>
</g>
<g>
</g>
<g>
</g>
<g>
</g>
<g>
</g>
<g>
</g>
<g>
</g>
<g>
</g>
<g>
</g>
<g>
</g>
</svg>
